# xmcd
#
# Track frame offsets: 
#        150
#        13252
#        31861
#        59810
#
# Disc length: 1539 seconds
#
# Revision: 0
# Processed by: cddbd v1.4PL0 Copyright (c) Steve Scherf et al.
# Submitted via: ExactAudioCopy v0.95a3
#
DISCID=31060104
DTITLE=Shania Twain - When You Kiss Me 2
DYEAR=2003
DGENRE=Country
TTITLE0=Up!
TTITLE1=When You Kiss Me
TTITLE2=Ka!Ching! (Live from Chicago)
TTITLE3=Up! - Video
EXTD=
EXTT0=
EXTT1=
EXTT2=
EXTT3=
PLAYORDER=
